grf
version=1
nRows=15
nColumns=37
inDegrees=no
endheader
time	ground_force_1_vx	ground_force_1_vy	ground_force_1_vz	ground_force_1_px	ground_force_1_py	ground_force_1_pz	ground_moment_1_mx	ground_moment_1_my	ground_moment_1_mz	ground_force_2_vx	ground_force_2_vy	ground_force_2_vz	ground_force_2_px	ground_force_2_py	ground_force_2_pz	ground_moment_2_mx	ground_moment_2_my	ground_moment_2_mz	ground_force_3_vx	ground_force_3_vy	ground_force_3_vz	ground_force_3_px	ground_force_3_py	ground_force_3_pz	ground_moment_3_mx	ground_moment_3_my	ground_moment_3_mz	ground_force_4_vx	ground_force_4_vy	ground_force_4_vz	ground_force_4_px	ground_force_4_py	ground_force_4_pz	ground_moment_4_mx	ground_moment_4_my	ground_moment_4_mz
      0.00000000	      0.00000000	     -0.00000000	      0.00000000	      0.00000000	      0.00000000	      0.00000000	      0.00000000	      0.00000000	      0.00000000	      1.96263123	     12.93355465	   -367.38357544	   -306.99214523	   -999.72102721	      0.00000000	      0.00000000	      0.00000000	   1952.83178063	     -2.69083228	    -15.23056293	   -363.31173706	   -282.52487949	   -745.80365040	      0.00000000	     -0.00000000	     -0.00000000	  -2720.93147734	      0.00000000	     -0.00000000	      0.00000000	      0.00000000	      0.00000000	      0.00000000	      0.00000000	      0.00000000	      0.00000000
      0.01000000	      0.00000000	     -0.00000000	      0.00000000	      0.00000000	      0.00000000	      0.00000000	      0.00000000	      0.00000000	      0.00000000	      1.59626281	     12.87458420	   -367.42715454	   -306.53751437	   -998.93688959	      0.00000000	      0.00000000	      0.00000000	   1988.26435816	     -2.81920492	    -14.92636465	   -362.03176880	   -281.96569026	   -746.63848456	      0.00000000	      0.00000000	     -0.00000000	  -2647.92512585	      0.00000000	     -0.00000000	      0.00000000	      0.00000000	      0.00000000	      0.00000000	      0.00000000	      0.00000000	      0.00000000
      0.02000000	      0.00000000	     -0.00000000	      0.00000000	      0.00000000	      0.00000000	      0.00000000	      0.00000000	      0.00000000	      0.00000000	      1.44611025	     13.61579323	   -366.21047974	   -306.38843599	   -997.21905644	      0.00000000	      0.00000000	      0.00000000	   1905.93142439	     -2.57261410	    -15.32859970	   -361.29626465	   -282.17844367	   -746.40916466	      0.00000000	      0.00000000	     -0.00000000	  -2724.10588691	      0.00000000	     -0.00000000	      0.00000000	      0.00000000	      0.00000000	      0.00000000	      0.00000000	      0.00000000	      0.00000000
      0.03000000	      0.00000000	     -0.00000000	      0.00000000	      0.00000000	      0.00000000	      0.00000000	      0.00000000	      0.00000000	      0.00000000	      1.46735227	     13.40027428	   -368.36669922	   -306.28841553	   -998.97575870	      0.00000000	      0.00000000	      0.00000000	   1937.27588309	     -2.82925812	    -15.45629477	   -360.44302368	   -280.86795771	   -746.23267365	      0.00000000	     -0.00000000	     -0.00000000	  -2695.59708580	      0.00000000	     -0.00000000	      0.00000000	      0.00000000	      0.00000000	      0.00000000	      0.00000000	      0.00000000	      0.00000000
      0.04000000	      0.00000000	     -0.00000000	      0.00000000	      0.00000000	      0.00000000	      0.00000000	      0.00000000	      0.00000000	      0.00000000	      1.67311192	     13.17851067	   -367.69628906	   -305.84418001	   -997.92058079	      0.00000000	      0.00000000	      0.00000000	   1974.82720927	     -3.31265511	    -15.16110773	   -360.51742554	   -281.16298884	   -745.35040972	      0.00000000	     -0.00000000	     -0.00000000	  -2592.30579677	      0.00000000	     -0.00000000	      0.00000000	      0.00000000	      0.00000000	      0.00000000	      0.00000000	      0.00000000	      0.00000000
      0.05000000	      0.00000000	     -0.00000000	      0.00000000	      0.00000000	      0.00000000	      0.00000000	      0.00000000	      0.00000000	      0.00000000	      1.58787274	     13.55677128	   -369.62054443	   -306.07048938	   -999.29579005	      0.00000000	      0.00000000	      0.00000000	   2068.12092399	     -3.38021696	    -14.99343843	   -359.24078369	   -281.12485422	   -745.57854398	      0.00000000	      0.00000000	     -0.00000000	  -2669.40659893	      0.00000000	     -0.00000000	      0.00000000	      0.00000000	      0.00000000	      0.00000000	      0.00000000	      0.00000000	      0.00000000
      0.06000000	      0.00000000	     -0.00000000	      0.00000000	      0.00000000	      0.00000000	      0.00000000	      0.00000000	      0.00000000	      0.00000000	      1.80674291	     13.38325119	   -369.77941895	   -306.32727294	   -997.91562254	      0.00000000	      0.00000000	      0.00000000	   2040.21947736	     -3.22432911	    -14.92636462	   -358.03713989	   -280.98235030	   -746.24733206	      0.00000000	      0.00000000	      0.00000000	  -2639.69600794	      0.00000000	     -0.00000000	      0.00000000	      0.00000000	      0.00000000	      0.00000000	      0.00000000	      0.00000000	      0.00000000
      0.07000000	      0.00000000	     -0.00000000	      0.00000000	      0.00000000	      0.00000000	      0.00000000	      0.00000000	      0.00000000	      0.00000000	      1.85607338	     13.14240170	   -371.51098633	   -305.85116208	   -999.89743308	      0.00000000	      0.00000000	      0.00000000	   2022.56678828	     -3.72585428	    -15.00161806	   -356.86810303	   -280.50971111	   -746.65256056	      0.00000000	      0.00000000	     -0.00000000	  -2540.76717424	      0.00000000	     -0.00000000	      0.00000000	      0.00000000	      0.00000000	      0.00000000	      0.00000000	      0.00000000	      0.00000000
      0.08000000	      0.00000000	     -0.00000000	      0.00000000	      0.00000000	      0.00000000	      0.00000000	      0.00000000	      0.00000000	      0.00000000	      2.14105225	     13.23159218	   -371.25985718	   -306.41910566	   -997.99407395	      0.00000000	      0.00000000	      0.00000000	   1975.34824993	     -3.36220801	    -15.01468629	   -357.44329834	   -280.67956500	   -745.30090288	      0.00000000	     -0.00000000	     -0.00000000	  -2684.87284035	      0.00000000	     -0.00000000	      0.00000000	      0.00000000	      0.00000000	      0.00000000	      0.00000000	      0.00000000	      0.00000000
      0.09000000	      0.00000000	     -0.00000000	      0.00000000	      0.00000000	      0.00000000	      0.00000000	      0.00000000	      0.00000000	      0.00000000	      1.93735921	     12.87513447	   -370.64569092	   -306.34578559	   -997.64820468	      0.00000000	      0.00000000	      0.00000000	   1961.90891796	     -3.05618606	    -14.79820034	   -357.28451538	   -280.28181964	   -746.15563052	      0.00000000	     -0.00000000	      0.00000000	  -2702.60141533	      0.00000000	     -0.00000000	      0.00000000	      0.00000000	      0.00000000	      0.00000000	      0.00000000	      0.00000000	      0.00000000
      0.10000000	      0.00000000	     -0.00000000	      0.00000000	      0.00000000	      0.00000000	      0.00000000	      0.00000000	      0.00000000	      0.00000000	      2.14105225	     13.06999588	   -370.77346802	   -306.44204221	   -998.86450148	      0.00000000	      0.00000000	      0.00000000	   1930.15529913	     -3.07330358	    -15.03165123	   -357.81335449	   -280.38657380	   -745.87372745	      0.00000000	      0.00000000	      0.00000000	  -2674.45372456	      0.00000000	     -0.00000000	      0.00000000	      0.00000000	      0.00000000	      0.00000000	      0.00000000	      0.00000000	      0.00000000
      0.11000000	      0.00000000	     -0.00000000	      0.00000000	      0.00000000	      0.00000000	      0.00000000	      0.00000000	      0.00000000	      0.00000000	      2.10051680	     12.89154148	   -369.87542725	   -306.32034678	   -999.08225426	      0.00000000	      0.00000000	      0.00000000	   1949.81607820	     -3.20198118	    -14.94963809	   -358.89486694	   -280.65748948	   -745.57139169	      0.00000000	      0.00000000	     -0.00000000	  -2732.04914279	      0.00000000	     -0.00000000	      0.00000000	      0.00000000	      0.00000000	      0.00000000	      0.00000000	      0.00000000	      0.00000000
      0.12000000	      0.00000000	     -0.00000000	      0.00000000	      0.00000000	      0.00000000	      0.00000000	      0.00000000	      0.00000000	      0.00000000	      1.68701553	     12.95650768	   -369.77941895	   -305.72144038	   -999.72721775	      0.00000000	      0.00000000	      0.00000000	   1790.63133006	     -3.26582612	    -15.15126963	   -358.70465088	   -280.50952995	   -746.14418778	      0.00000000	      0.00000000	      0.00000000	  -2632.45376030	      0.00000000	     -0.00000000	      0.00000000	      0.00000000	      0.00000000	      0.00000000	      0.00000000	      0.00000000	      0.00000000
      0.13000000	      0.00000000	     -0.00000000	      0.00000000	      0.00000000	      0.00000000	      0.00000000	      0.00000000	      0.00000000	      0.00000000	      2.37586164	     13.27258110	   -369.77941895	   -305.64233653	   -999.70968196	      0.00000000	      0.00000000	      0.00000000	   2001.62775432	     -2.97586719	    -15.37604687	   -359.72094727	   -280.82725265	   -745.89451083	      0.00000000	      0.00000000	     -0.00000000	  -2749.04313584	      0.00000000	     -0.00000000	      0.00000000	      0.00000000	      0.00000000	      0.00000000	      0.00000000	      0.00000000	      0.00000000
      0.14000000	      0.00000000	     -0.00000000	      0.00000000	      0.00000000	      0.00000000	      0.00000000	      0.00000000	      0.00000000	      0.00000000	      1.81722522	     12.96461391	   -369.97128296	   -305.80028588	   -999.36196063	      0.00000000	      0.00000000	      0.00000000	   1918.11865258	     -2.95984070	    -15.46424077	   -359.84786987	   -280.49313758	   -746.17070983	      0.00000000	      0.00000000	     -0.00000000	  -2891.72941064	      0.00000000	     -0.00000000	      0.00000000	      0.00000000	      0.00000000	      0.00000000	      0.00000000	      0.00000000	      0.00000000
